<svg xmlns="http://www.w3.org/2000/svg" viewBox="0 0 272.99 272.99"><defs><style>.cls-1{fill:#2663c2;}.cls-2{fill:#fff;}</style></defs><title>Asset 1</title><g id="Layer_2" data-name="Layer 2"><g id="Layer_1-2" data-name="Layer 1"><path class="cls-1" d="M136.49,13.51c-8.33,0-16.3,5.52-24.73,11.36-5.49,3.8-11.16,7.73-17.25,10.25-6.37,2.65-13.36,4-20.12,5.24C64.45,42.23,55.07,44,49.53,49.53s-7.3,14.92-9.17,24.86c-1.28,6.76-2.59,13.75-5.24,20.12-2.52,6.09-6.45,11.76-10.25,17.25-5.84,8.44-11.36,16.4-11.36,24.73s5.52,16.3,11.36,24.73c3.8,5.49,7.73,11.17,10.25,17.25,2.65,6.38,4,13.37,5.24,20.13,1.87,9.93,3.63,19.32,9.17,24.85s14.92,7.31,24.86,9.18c6.76,1.28,13.75,2.59,20.12,5.23,6.09,2.52,11.76,6.46,17.25,10.26,8.44,5.84,16.4,11.35,24.73,11.35s16.3-5.51,24.73-11.35c5.49-3.8,11.17-7.74,17.25-10.26,6.37-2.64,13.36-4,20.12-5.23,9.94-1.87,19.33-3.64,24.86-9.18s7.31-14.92,9.18-24.85c1.27-6.76,2.59-13.75,5.23-20.13,2.52-6.08,6.45-11.76,10.25-17.24,5.85-8.44,11.36-16.41,11.36-24.74S254,120.2,248.12,111.77c-3.81-5.5-7.74-11.17-10.26-17.26-2.64-6.37-4-13.36-5.23-20.12-1.87-9.94-3.64-19.32-9.18-24.86s-14.92-7.3-24.85-9.17c-6.77-1.28-13.76-2.59-20.13-5.24-6.08-2.52-11.76-6.45-17.25-10.25C152.79,19,144.82,13.51,136.49,13.51Z"/><path class="cls-2" d="M106.91,68.3c2.47,2.22.85,5.79-6.59,12.92s-15.51,15.6-19.76,21.61S65.69,130.9,62.93,144.26s-.13,20.6-1.06,21.83c-4.81,6.36-14.36,5.38-20.13,17.67-.15.33,0,.52.34.42,9.43-2.69,9.8,1.88,20.09-4.38a.42.42,0,0,1,.67.32c2.21,11.22,9.14,9.4,12.38,17.21.14.34.36.35.48,0,3.14-9.38-6.79-23.54-5.34-27.89s7.44-25.62,12.33-31.3,8-11.25,20.15-18.83c11.78-7.34,45.72-20.77,53.18-23,.33-.1.44.06.24.37-2.57,4,.74,4.52-6.59,8.84a.72.72,0,0,0,0,1.34c10.69,6.19,25-4.21,27.43-12.53a1,1,0,0,1,.81-.68c8.46-.54,20.15-3,27.41-1.3,7.43,1.78,18.69,4.68,20,2.67S224,89.91,221,87.68s-5.95-4.68-7.86-9.58-7.65-13.81-14.87-18-24-7.79-33.15-7.8c-16.23,0-30.17,7.8-35.06,7.58s-13.61-3.6-25.71,2.67C99.79,64.88,105.1,66.68,106.91,68.3Z"/><path class="cls-1" d="M136.49,273c-11.75,0-21.64-6.86-31.21-13.48-5.44-3.77-10.57-7.32-15.81-9.49-5.56-2.31-12.2-3.56-18.63-4.77C59.56,243.13,47.9,240.93,40,233s-10.12-19.59-12.24-30.86c-1.21-6.43-2.47-13.08-4.77-18.64-2.17-5.24-5.73-10.37-9.49-15.8C6.85,158.14,0,148.24,0,136.49s6.85-21.64,13.48-31.21C17.24,99.84,20.8,94.71,23,89.47c2.3-5.56,3.56-12.2,4.77-18.63C29.86,59.56,32.06,47.9,40,40S59.56,29.86,70.84,27.74c6.43-1.22,13.07-2.47,18.63-4.77,5.24-2.17,10.37-5.73,15.81-9.49C114.85,6.85,124.74,0,136.49,0s21.65,6.85,31.22,13.48c5.43,3.76,10.56,7.32,15.8,9.49,5.56,2.3,12.21,3.55,18.64,4.77C213.43,29.86,225.09,32.06,233,40s10.12,19.58,12.24,30.86c1.21,6.43,2.46,13.07,4.77,18.63,2.17,5.24,5.72,10.37,9.49,15.81,6.62,9.57,13.48,19.46,13.48,31.21s-6.86,21.65-13.48,31.22c-3.77,5.43-7.32,10.56-9.49,15.8-2.31,5.56-3.56,12.21-4.77,18.64-2.12,11.27-4.32,22.94-12.24,30.86s-19.58,10.12-30.86,12.24c-6.43,1.21-13.08,2.46-18.64,4.77-5.24,2.17-10.37,5.72-15.8,9.49C158.14,266.13,148.24,273,136.49,273Zm0-266.85c-9.83,0-18.92,6.3-27.72,12.39-5.46,3.78-11.1,7.69-17,10.11C85.68,31.19,78.71,32.5,72,33.77c-10.84,2-21.08,4-27.66,10.55S35.81,61.14,33.77,72c-1.27,6.73-2.58,13.7-5.13,19.84-2.42,5.85-6.33,11.5-10.11,17-6.09,8.8-12.39,17.89-12.39,27.72s6.3,18.93,12.39,27.72c3.78,5.46,7.69,11.11,10.11,16.95,2.55,6.15,3.86,13.11,5.13,19.85,2,10.84,4,21.07,10.55,27.65S61.14,237.17,72,239.21c6.73,1.27,13.7,2.58,19.84,5.13,5.85,2.43,11.49,6.34,17,10.12,8.8,6.09,17.89,12.38,27.72,12.38s18.93-6.29,27.72-12.38c5.46-3.78,11.11-7.69,16.95-10.12,6.15-2.55,13.11-3.86,19.85-5.13,10.84-2,21.08-4,27.65-10.55s8.51-16.81,10.55-27.65c1.27-6.74,2.58-13.7,5.13-19.85,2.43-5.84,6.34-11.49,10.12-16.95,6.09-8.79,12.38-17.89,12.38-27.72s-6.29-18.92-12.38-27.72c-3.78-5.45-7.69-11.1-10.12-17-2.55-6.14-3.86-13.11-5.13-19.84-2-10.84-4-21.08-10.54-27.66S211.85,35.81,201,33.77c-6.74-1.27-13.7-2.58-19.85-5.13-5.84-2.42-11.49-6.33-16.95-10.11C155.42,12.44,146.32,6.14,136.49,6.14Z"/><path class="cls-1" d="M136.49,264.8c-9.19,0-17.62-5.84-26.55-12-5.55-3.84-11.28-7.81-17.33-10.32-6.34-2.63-13.41-4-20.25-5.25-10.52-2-20.46-3.85-26.59-10s-8-16.07-10-26.59c-1.28-6.84-2.62-13.91-5.25-20.25-2.51-6-6.48-11.79-10.32-17.33-6.18-8.93-12-17.37-12-26.56s5.84-17.62,12-26.55c3.84-5.55,7.81-11.28,10.32-17.33,2.64-6.35,4-13.42,5.25-20.25,2-10.52,3.86-20.46,10-26.59s16.06-8,26.58-10c6.85-1.28,13.92-2.62,20.26-5.25,6-2.5,11.78-6.48,17.33-10.32,8.93-6.18,17.36-12,26.55-12s17.63,5.84,26.56,12c5.54,3.84,11.28,7.82,17.33,10.32,6.34,2.63,13.41,4,20.24,5.25,10.53,2,20.47,3.86,26.6,10s8,16.07,10,26.58c1.29,6.84,2.62,13.91,5.25,20.26,2.51,6,6.48,11.78,10.32,17.32,6.19,8.94,12,17.37,12,26.56s-5.84,17.63-12,26.55c-3.84,5.56-7.81,11.29-10.32,17.34-2.63,6.35-4,13.41-5.25,20.25-2,10.52-3.85,20.45-10,26.59s-16.07,8-26.59,10c-6.84,1.29-13.91,2.62-20.25,5.25-6,2.51-11.79,6.48-17.33,10.32C154.12,259,145.69,264.8,136.49,264.8Zm0-254.56c-8.55,0-16.73,5.66-25.39,11.66-5.63,3.9-11.46,7.93-17.71,10.52-6.53,2.72-13.71,4.07-20.65,5.37-10.21,1.93-19.84,3.74-25.52,9.43s-7.5,15.32-9.42,25.51c-1.31,6.94-2.66,14.12-5.38,20.66-2.59,6.25-6.62,12.08-10.52,17.71-6,8.66-11.66,16.84-11.66,25.39s5.66,16.73,11.65,25.39c3.91,5.64,7.94,11.46,10.53,17.71,2.72,6.54,4.07,13.72,5.38,20.66,1.92,10.2,3.73,19.83,9.42,25.52s15.31,7.5,25.51,9.42c7,1.31,14.13,2.66,20.66,5.37,6.25,2.59,12.08,6.63,17.71,10.53,8.66,6,16.84,11.66,25.39,11.66s16.73-5.66,25.39-11.66c5.64-3.9,11.46-7.94,17.71-10.53,6.54-2.71,13.72-4.06,20.66-5.37,10.2-1.92,19.83-3.73,25.52-9.42s7.5-15.32,9.42-25.52c1.31-6.94,2.66-14.11,5.37-20.66,2.59-6.25,6.62-12.07,10.52-17.7,6-8.67,11.67-16.85,11.67-25.4s-5.66-16.73-11.66-25.38c-3.91-5.65-7.94-11.47-10.53-17.72-2.71-6.54-4.06-13.72-5.37-20.66-1.92-10.19-3.73-19.83-9.42-25.51s-15.32-7.5-25.52-9.42c-6.94-1.31-14.12-2.66-20.66-5.38-6.25-2.59-12.07-6.62-17.71-10.52C153.22,15.9,145.05,10.24,136.49,10.24Z"/><path class="cls-2" d="M219,208.57c-11.1-20.58-31.59-38.82-53.35-11.32C133.7,237.61,85.44,222.89,85.44,195c0-21.3,28.34-24.83,30-6.12.1,1.13-.57,1.39-1.44.67-12.45-10.34-16.73,11.06-1.81,10.89s23.55-6.79,35.33-21.52c19.55-24.41,53.9-27.33,71.82,29.53C219.66,209.51,219.5,209.57,219,208.57Z"/><path class="cls-2" d="M133.71,179.15c4.17-52.36,90.61-73.61,89.33,12.43,0,1.13-.4,1.19-.69.1-9.25-34.14-51-60.8-87.55-12.13C134.12,180.45,133.62,180.28,133.71,179.15Z"/></g></g></svg>